<mxfile host="app.diagrams.net" agent="Mozilla/5.0 (Macintosh; Intel Mac OS X 10_15_7) AppleWebKit/537.36 (KHTML, like Gecko) Chrome/129.0.0.0 Safari/537.36" version="24.9.0">
  <diagram name="画布1" id="4s-kcRH-gxY_ewPv4gA9">
    <mxGraphModel dx="1026" dy="612" grid="1" gridSize="10" guides="1" tooltips="1" connect="1" arrows="1" fold="1" page="1" pageScale="1" pageWidth="827" pageHeight="1169" math="0" shadow="0">
      <root>
        <mxCell id="0" />
        <mxCell id="1" parent="0" />
        <UserObject label="&lt;div style=&quot;font-size: 1px&quot;&gt;&lt;p style=&quot;text-align:center;margin-left:0;margin-right:0;margin-top:0px;margin-bottom:0px;text-indent:0;vertical-align:middle;direction:ltr;&quot;&gt;&lt;font style=&quot;font-size:12px;font-family:0;color:#000000;direction:ltr;letter-spacing:0px;line-height:120%;opacity:1&quot;&gt;开始&lt;/font&gt;&lt;/p&gt;&lt;/div&gt;" tags="Background" id="UURBc7K2mCdlaTNC5-gX-1">
          <mxCell style="verticalAlign=middle;align=center;overflow=width;vsdxID=1;fillColor=#FFFFFF;gradientColor=none;shape=stencil(hZJLEoIwDIZP06VMSQZ0j3gPRop0rJQpD/H2UoMCLQ67JP2S/EnKMGnKrBYMeNMafRdPmbclwzMDkFUpjGxHi2HKMCm0ETejuyonv84saa2H7m2FgfLCOIiPNgv4iyL8410IVrJawCcMEP/D185Q6XCqzaMgiic+XCbwATaQX+wLod8W18ymTH8mB3eFHnydswjwGVjPgn5b3N3lzuJHYz5ZIZWiiy/f3ROPIfoemL4B);strokeColor=#000000;spacingTop=-3;spacingBottom=-3;spacingLeft=-3;spacingRight=-3;points=[];labelBackgroundColor=none;rounded=0;html=1;whiteSpace=wrap;" vertex="1" parent="1">
            <mxGeometry x="476" y="20" width="100" height="50" as="geometry" />
          </mxCell>
        </UserObject>
        <UserObject label="&lt;div style=&quot;font-size: 1px&quot;&gt;&lt;p style=&quot;text-align:center;margin-left:0;margin-right:0;margin-top:0px;margin-bottom:0px;text-indent:0;vertical-align:middle;direction:ltr;&quot;&gt;&lt;font style=&quot;font-size:12px;font-family:0;color:#000000;direction:ltr;letter-spacing:0px;line-height:120%;opacity:1&quot;&gt;干系人提出变更请求（任何干系人、任何时间）&lt;/font&gt;&lt;/p&gt;&lt;/div&gt;" tags="Background" id="UURBc7K2mCdlaTNC5-gX-2">
          <mxCell style="verticalAlign=middle;align=center;overflow=width;vsdxID=2;fillColor=#FFFFFF;gradientColor=none;shape=stencil(nZBRDoQgDERP03+WHsHFe5iISyOCQdT19kIaIxq//Jtp3zTpAFaTaUYNUkwx+F6v1EYD+AUpyRkdKCYFqACrzgf9C352LfuxyWRWg1/yhT/nRE5IsZWuZtCSK8CPeI0e/hF+jV7AJM4PO7KWCyr390bSiNtEtQM=);strokeColor=#000000;spacingTop=-3;spacingBottom=-3;spacingLeft=-3;spacingRight=-3;points=[];labelBackgroundColor=none;rounded=0;html=1;whiteSpace=wrap;" vertex="1" parent="1">
            <mxGeometry x="476" y="127" width="100" height="70" as="geometry" />
          </mxCell>
        </UserObject>
        <UserObject label="&lt;div style=&quot;font-size: 1px&quot;&gt;&lt;p style=&quot;text-align:center;margin-left:0;margin-right:0;margin-top:0px;margin-bottom:0px;text-indent:0;vertical-align:middle;direction:ltr;&quot;&gt;&lt;font style=&quot;font-size:12px;font-family:0;color:#000000;direction:ltr;letter-spacing:0px;line-height:120%;opacity:1&quot;&gt;项目经理/项目团队了解变更内容&lt;/font&gt;&lt;/p&gt;&lt;/div&gt;" tags="Background" id="UURBc7K2mCdlaTNC5-gX-3">
          <mxCell style="verticalAlign=middle;align=center;overflow=width;vsdxID=3;fillColor=#FFFFFF;gradientColor=none;shape=stencil(nZBRDoQgDERP03+WHsHFe5iISyOCQdT19kIaIxq//Jtp3zTpAFaTaUYNUkwx+F6v1EYD+AUpyRkdKCYFqACrzgf9C352LfuxyWRWg1/yhT/nRE5IsZWuZtCSK8CPeI0e/hF+jV7AJM4PO7KWCyr390bSiNtEtQM=);strokeColor=#000000;spacingTop=-3;spacingBottom=-3;spacingLeft=-3;spacingRight=-3;points=[];labelBackgroundColor=none;rounded=0;html=1;whiteSpace=wrap;" vertex="1" parent="1">
            <mxGeometry x="634" y="127" width="100" height="70" as="geometry" />
          </mxCell>
        </UserObject>
        <UserObject label="&lt;div style=&quot;font-size: 1px&quot;&gt;&lt;p style=&quot;text-align:center;margin-left:0;margin-right:0;margin-top:0px;margin-bottom:0px;text-indent:0;vertical-align:middle;direction:ltr;&quot;&gt;&lt;font style=&quot;font-size:12px;font-family:0;color:#000000;direction:ltr;letter-spacing:0px;line-height:120%;opacity:1&quot;&gt;项目经理/项目团队判断是否影响项目（是否影响项目三约束并做出决策）&lt;/font&gt;&lt;/p&gt;&lt;/div&gt;" tags="Background" id="UURBc7K2mCdlaTNC5-gX-4">
          <mxCell style="verticalAlign=middle;align=center;overflow=width;vsdxID=4;fillColor=#FFFFFF;gradientColor=none;shape=stencil(nZBRDoQgDERP03+WHsHFe5iISyOCQdT19kIaIxq//Jtp3zTpAFaTaUYNUkwx+F6v1EYD+AUpyRkdKCYFqACrzgf9C352LfuxyWRWg1/yhT/nRE5IsZWuZtCSK8CPeI0e/hF+jV7AJM4PO7KWCyr390bSiNtEtQM=);strokeColor=#000000;spacingTop=-3;spacingBottom=-3;spacingLeft=-3;spacingRight=-3;points=[];labelBackgroundColor=none;rounded=0;html=1;whiteSpace=wrap;" vertex="1" parent="1">
            <mxGeometry x="612" y="244" width="144" height="80" as="geometry" />
          </mxCell>
        </UserObject>
        <UserObject label="&lt;div style=&quot;font-size: 1px&quot;&gt;&lt;p style=&quot;text-align:center;margin-left:0;margin-right:0;margin-top:0px;margin-bottom:0px;text-indent:0;vertical-align:middle;direction:ltr;&quot;&gt;&lt;font style=&quot;font-size:12px;font-family:0;color:#000000;direction:ltr;letter-spacing:0px;line-height:120%;opacity:1&quot;&gt;项目经理/项目团队判断是否需要变更&lt;/font&gt;&lt;/p&gt;&lt;/div&gt;" tags="Background" id="UURBc7K2mCdlaTNC5-gX-5">
          <mxCell style="verticalAlign=middle;align=center;overflow=width;vsdxID=5;fillColor=#FFFFFF;gradientColor=none;shape=stencil(nZBdDoMgEIRPs+/IxhNYew8TUTYiGKT+3F7IppE2jTF9m9n9Zh4GsJp1MymQYg7eDWqlNmjAB0hJVitPISrAGrDqnFe9dy/bsp+aRCY1uiU1bJwTKSHFzq5k+2TSkM3I8hO9IAvxd+s7+pO933pFRnGO0ZExvGX+/x4vnnh4rA8=);strokeColor=#000000;spacingTop=-3;spacingBottom=-3;spacingLeft=-3;spacingRight=-3;points=[];labelBackgroundColor=none;rounded=0;html=1;whiteSpace=wrap;" vertex="1" parent="1">
            <mxGeometry x="600" y="377" width="168" height="76" as="geometry" />
          </mxCell>
        </UserObject>
        <UserObject label="&lt;div style=&quot;font-size: 1px&quot;&gt;&lt;p style=&quot;text-align:center;margin-left:0;margin-right:0;margin-top:0px;margin-bottom:0px;text-indent:0;vertical-align:middle;direction:ltr;&quot;&gt;&lt;font style=&quot;font-size:12px;font-family:0;color:#000000;direction:ltr;letter-spacing:0px;line-height:120%;opacity:1&quot;&gt;取消（通知提出等干系人）&lt;/font&gt;&lt;/p&gt;&lt;/div&gt;" tags="Background" id="UURBc7K2mCdlaTNC5-gX-6">
          <mxCell style="verticalAlign=middle;align=center;overflow=width;vsdxID=6;fillColor=#FFFFFF;gradientColor=none;shape=stencil(nZBRDoQgDERP03+WHsHFe5iISyOCQdT19kIaIxq//Jtp3zTpAFaTaUYNUkwx+F6v1EYD+AUpyRkdKCYFqACrzgf9C352LfuxyWRWg1/yhT/nRE5IsZWuZtCSK8CPeI0e/hF+jV7AJM4PO7KWCyr390bSiNtEtQM=);strokeColor=#000000;spacingTop=-3;spacingBottom=-3;spacingLeft=-3;spacingRight=-3;points=[];labelBackgroundColor=none;rounded=0;html=1;whiteSpace=wrap;" vertex="1" parent="1">
            <mxGeometry x="439" y="380" width="100" height="70" as="geometry" />
          </mxCell>
        </UserObject>
        <UserObject label="&lt;div style=&quot;font-size: 1px&quot;&gt;&lt;p style=&quot;text-align:center;margin-left:0;margin-right:0;margin-top:0px;margin-bottom:0px;text-indent:0;vertical-align:middle;direction:ltr;&quot;&gt;&lt;font style=&quot;font-size:12px;font-family:0;color:#000000;direction:ltr;letter-spacing:0px;line-height:120%;opacity:1&quot;&gt;N&lt;/font&gt;&lt;/p&gt;&lt;/div&gt;" tags="Background" id="UURBc7K2mCdlaTNC5-gX-7">
          <mxCell style="verticalAlign=middle;align=center;overflow=width;vsdxID=7;fillColor=none;gradientColor=none;shape=stencil(nZBLDoAgDAVP0z3SIyjeg0SURgWD+Lu9EGL8xBW7N828Ji1gOWs5KeBs9s72aqPGa8AKOCejlSMfEqAALFvrVOfsYprEk4xmTKNd44Y99VhscHY8qU7iQOYhFixbvfhXzlZfYgj3hQG+54dReh2KEw==);strokeColor=none;strokeWidth=0;spacingTop=-3;spacingBottom=-3;spacingLeft=-3;spacingRight=-3;points=[];labelBackgroundColor=none;rounded=0;html=1;whiteSpace=wrap;" vertex="1" parent="1">
            <mxGeometry x="553" y="380" width="50" height="36" as="geometry" />
          </mxCell>
        </UserObject>
        <UserObject label="&lt;div style=&quot;font-size: 1px&quot;&gt;&lt;p style=&quot;text-align:center;margin-left:0;margin-right:0;margin-top:0px;margin-bottom:0px;text-indent:0;vertical-align:middle;direction:ltr;&quot;&gt;&lt;font style=&quot;font-size:12px;font-family:0;color:#000000;direction:ltr;letter-spacing:0px;line-height:120%;opacity:1&quot;&gt;记录&lt;/font&gt;&lt;/p&gt;&lt;/div&gt;" tags="Background" id="UURBc7K2mCdlaTNC5-gX-8">
          <mxCell style="verticalAlign=middle;align=center;overflow=width;vsdxID=8;fillColor=#FFFFFF;gradientColor=none;shape=stencil(nZBRDoQgDERP03+WHsHFe5iISyOCQdT19kIaIxq//Jtp3zTpAFaTaUYNUkwx+F6v1EYD+AUpyRkdKCYFqACrzgf9C352LfuxyWRWg1/yhT/nRE5IsZWuZtCSK8CPeI0e/hF+jV7AJM4PO7KWCyr390bSiNtEtQM=);strokeColor=#000000;spacingTop=-3;spacingBottom=-3;spacingLeft=-3;spacingRight=-3;points=[];labelBackgroundColor=none;rounded=0;html=1;whiteSpace=wrap;" vertex="1" parent="1">
            <mxGeometry x="439" y="527" width="100" height="70" as="geometry" />
          </mxCell>
        </UserObject>
        <UserObject label="&lt;div style=&quot;font-size: 1px&quot;&gt;&lt;p style=&quot;text-align:center;margin-left:0;margin-right:0;margin-top:0px;margin-bottom:0px;text-indent:0;vertical-align:middle;direction:ltr;&quot;&gt;&lt;font style=&quot;font-size:12px;font-family:0;color:#000000;direction:ltr;letter-spacing:0px;line-height:120%;opacity:1&quot;&gt;总结经验教训&lt;/font&gt;&lt;/p&gt;&lt;/div&gt;" tags="Background" id="UURBc7K2mCdlaTNC5-gX-9">
          <mxCell style="verticalAlign=middle;align=center;overflow=width;vsdxID=9;fillColor=#FFFFFF;gradientColor=none;shape=stencil(nZBRDoQgDERP03+WHsHFe5iISyOCQdT19kIaIxq//Jtp3zTpAFaTaUYNUkwx+F6v1EYD+AUpyRkdKCYFqACrzgf9C352LfuxyWRWg1/yhT/nRE5IsZWuZtCSK8CPeI0e/hF+jV7AJM4PO7KWCyr390bSiNtEtQM=);strokeColor=#000000;spacingTop=-3;spacingBottom=-3;spacingLeft=-3;spacingRight=-3;points=[];labelBackgroundColor=none;rounded=0;html=1;whiteSpace=wrap;" vertex="1" parent="1">
            <mxGeometry x="284" y="527" width="100" height="70" as="geometry" />
          </mxCell>
        </UserObject>
        <UserObject label="&lt;div style=&quot;font-size: 1px&quot;&gt;&lt;p style=&quot;text-align:center;margin-left:0;margin-right:0;margin-top:0px;margin-bottom:0px;text-indent:0;vertical-align:middle;direction:ltr;&quot;&gt;&lt;font style=&quot;font-size:12px;font-family:0;color:#000000;direction:ltr;letter-spacing:0px;line-height:120%;opacity:1&quot;&gt;更新组织过程资产&lt;/font&gt;&lt;/p&gt;&lt;/div&gt;" tags="Background" id="UURBc7K2mCdlaTNC5-gX-10">
          <mxCell style="verticalAlign=middle;align=center;overflow=width;vsdxID=10;fillColor=#FFFFFF;gradientColor=none;shape=stencil(nZBRDoQgDERP03+WHsHFe5iISyOCQdT19kIaIxq//Jtp3zTpAFaTaUYNUkwx+F6v1EYD+AUpyRkdKCYFqACrzgf9C352LfuxyWRWg1/yhT/nRE5IsZWuZtCSK8CPeI0e/hF+jV7AJM4PO7KWCyr390bSiNtEtQM=);strokeColor=#000000;spacingTop=-3;spacingBottom=-3;spacingLeft=-3;spacingRight=-3;points=[];labelBackgroundColor=none;rounded=0;html=1;whiteSpace=wrap;" vertex="1" parent="1">
            <mxGeometry x="146" y="527" width="100" height="70" as="geometry" />
          </mxCell>
        </UserObject>
        <UserObject label="&lt;div style=&quot;font-size: 1px&quot;&gt;&lt;p style=&quot;text-align:center;margin-left:0;margin-right:0;margin-top:0px;margin-bottom:0px;text-indent:0;vertical-align:middle;direction:ltr;&quot;&gt;&lt;font style=&quot;font-size:12px;font-family:0;color:#000000;direction:ltr;letter-spacing:0px;line-height:120%;opacity:1&quot;&gt;结束&lt;/font&gt;&lt;/p&gt;&lt;/div&gt;" tags="Background" id="UURBc7K2mCdlaTNC5-gX-11">
          <mxCell style="verticalAlign=middle;align=center;overflow=width;vsdxID=11;fillColor=#FFFFFF;gradientColor=none;shape=stencil(hZJLEoIwDIZP06VMSQZ0j3gPRop0rJQpD/H2UoMCLQ67JP2S/EnKMGnKrBYMeNMafRdPmbclwzMDkFUpjGxHi2HKMCm0ETejuyonv84saa2H7m2FgfLCOIiPNgv4iyL8410IVrJawCcMEP/D185Q6XCqzaMgiic+XCbwATaQX+wLod8W18ymTH8mB3eFHnydswjwGVjPgn5b3N3lzuJHYz5ZIZWiiy/f3ROPIfoemL4B);strokeColor=#000000;spacingTop=-3;spacingBottom=-3;spacingLeft=-3;spacingRight=-3;points=[];labelBackgroundColor=none;rounded=0;html=1;whiteSpace=wrap;" vertex="1" parent="1">
            <mxGeometry x="13" y="537" width="100" height="50" as="geometry" />
          </mxCell>
        </UserObject>
        <UserObject label="&lt;div style=&quot;font-size: 1px&quot;&gt;&lt;p style=&quot;text-align:center;margin-left:0;margin-right:0;margin-top:0px;margin-bottom:0px;text-indent:0;vertical-align:middle;direction:ltr;&quot;&gt;&lt;font style=&quot;font-size:12px;font-family:0;color:#000000;direction:ltr;letter-spacing:0px;line-height:120%;opacity:1&quot;&gt;项目经理/团队判断是否影响基准&lt;/font&gt;&lt;/p&gt;&lt;/div&gt;" tags="Background" id="UURBc7K2mCdlaTNC5-gX-12">
          <mxCell style="verticalAlign=middle;align=center;overflow=width;vsdxID=12;fillColor=#FFFFFF;gradientColor=none;shape=stencil(nZBdDoMgEIRPs+/IxhNYew8TUTYiGKT+3F7IppE2jTF9m9n9Zh4GsJp1MymQYg7eDWqlNmjAB0hJVitPISrAGrDqnFe9dy/bsp+aRCY1uiU1bJwTKSHFzq5k+2TSkM3I8hO9IAvxd+s7+pO933pFRnGO0ZExvGX+/x4vnnh4rA8=);strokeColor=#000000;spacingTop=-3;spacingBottom=-3;spacingLeft=-3;spacingRight=-3;points=[];labelBackgroundColor=none;rounded=0;html=1;whiteSpace=wrap;" vertex="1" parent="1">
            <mxGeometry x="799" y="383" width="204" height="64" as="geometry" />
          </mxCell>
        </UserObject>
        <UserObject label="&lt;div style=&quot;font-size: 1px&quot;&gt;&lt;p style=&quot;text-align:center;margin-left:0;margin-right:0;margin-top:0px;margin-bottom:0px;text-indent:0;vertical-align:middle;direction:ltr;&quot;&gt;&lt;font style=&quot;font-size:12px;font-family:0;color:#000000;direction:ltr;letter-spacing:0px;line-height:120%;opacity:1&quot;&gt;Y&lt;/font&gt;&lt;/p&gt;&lt;/div&gt;" tags="Background" id="UURBc7K2mCdlaTNC5-gX-13">
          <mxCell style="verticalAlign=middle;align=center;overflow=width;vsdxID=13;fillColor=none;gradientColor=none;shape=stencil(nZBLDoAgDAVP0z3SIyjeg0SURgWD+Lu9EGL8xBW7N828Ji1gOWs5KeBs9s72aqPGa8AKOCejlSMfEqAALFvrVOfsYprEk4xmTKNd44Y99VhscHY8qU7iQOYhFixbvfhXzlZfYgj3hQG+54dReh2KEw==);strokeColor=none;strokeWidth=0;spacingTop=-3;spacingBottom=-3;spacingLeft=-3;spacingRight=-3;points=[];labelBackgroundColor=none;rounded=0;html=1;whiteSpace=wrap;" vertex="1" parent="1">
            <mxGeometry x="768" y="380" width="28" height="35" as="geometry" />
          </mxCell>
        </UserObject>
        <UserObject label="&lt;div style=&quot;font-size: 1px&quot;&gt;&lt;p style=&quot;text-align:center;margin-left:0;margin-right:0;margin-top:0px;margin-bottom:0px;text-indent:0;vertical-align:middle;direction:ltr;&quot;&gt;&lt;font style=&quot;font-size:12px;font-family:0;color:#000000;direction:ltr;letter-spacing:0px;line-height:120%;opacity:1&quot;&gt;项目经理批准，动用应急储备&lt;/font&gt;&lt;/p&gt;&lt;/div&gt;" tags="Background" id="UURBc7K2mCdlaTNC5-gX-14">
          <mxCell style="verticalAlign=middle;align=center;overflow=width;vsdxID=14;fillColor=#FFFFFF;gradientColor=none;shape=stencil(nZBRDoQgDERP03+WHsHFe5iISyOCQdT19kIaIxq//Jtp3zTpAFaTaUYNUkwx+F6v1EYD+AUpyRkdKCYFqACrzgf9C352LfuxyWRWg1/yhT/nRE5IsZWuZtCSK8CPeI0e/hF+jV7AJM4PO7KWCyr390bSiNtEtQM=);strokeColor=#000000;spacingTop=-3;spacingBottom=-3;spacingLeft=-3;spacingRight=-3;points=[];labelBackgroundColor=none;rounded=0;html=1;whiteSpace=wrap;" vertex="1" parent="1">
            <mxGeometry x="851" y="484" width="100" height="70" as="geometry" />
          </mxCell>
        </UserObject>
        <UserObject label="&lt;div style=&quot;font-size: 1px&quot;&gt;&lt;p style=&quot;text-align:center;margin-left:0;margin-right:0;margin-top:0px;margin-bottom:0px;text-indent:0;vertical-align:middle;direction:ltr;&quot;&gt;&lt;font style=&quot;font-size:12px;font-family:0;color:#000000;direction:ltr;letter-spacing:0px;line-height:120%;opacity:1&quot;&gt;N&lt;/font&gt;&lt;/p&gt;&lt;/div&gt;" tags="Background" id="UURBc7K2mCdlaTNC5-gX-15">
          <mxCell style="verticalAlign=middle;align=center;overflow=width;vsdxID=15;fillColor=none;gradientColor=none;shape=stencil(nZBLDoAgDAVP0z3SIyjeg0SURgWD+Lu9EGL8xBW7N828Ji1gOWs5KeBs9s72aqPGa8AKOCejlSMfEqAALFvrVOfsYprEk4xmTKNd44Y99VhscHY8qU7iQOYhFixbvfhXzlZfYgj3hQG+54dReh2KEw==);strokeColor=none;strokeWidth=0;spacingTop=-3;spacingBottom=-3;spacingLeft=-3;spacingRight=-3;points=[];labelBackgroundColor=none;rounded=0;html=1;whiteSpace=wrap;" vertex="1" parent="1">
            <mxGeometry x="861" y="441" width="50" height="36" as="geometry" />
          </mxCell>
        </UserObject>
        <UserObject label="&lt;div style=&quot;font-size: 1px&quot;&gt;&lt;p style=&quot;text-align:center;margin-left:0;margin-right:0;margin-top:0px;margin-bottom:0px;text-indent:0;vertical-align:middle;direction:ltr;&quot;&gt;&lt;font style=&quot;font-size:12px;font-family:0;color:#000000;direction:ltr;letter-spacing:0px;line-height:120%;opacity:1&quot;&gt;按照沟通管理计划通知相关关系人（干活人）&lt;/font&gt;&lt;/p&gt;&lt;/div&gt;" tags="Background" id="UURBc7K2mCdlaTNC5-gX-16">
          <mxCell style="verticalAlign=middle;align=center;overflow=width;vsdxID=16;fillColor=#FFFFFF;gradientColor=none;shape=stencil(nZBRDoQgDERP03+WHsHFe5iISyOCQdT19kIaIxq//Jtp3zTpAFaTaUYNUkwx+F6v1EYD+AUpyRkdKCYFqACrzgf9C352LfuxyWRWg1/yhT/nRE5IsZWuZtCSK8CPeI0e/hF+jV7AJM4PO7KWCyr390bSiNtEtQM=);strokeColor=#000000;spacingTop=-3;spacingBottom=-3;spacingLeft=-3;spacingRight=-3;points=[];labelBackgroundColor=none;rounded=0;html=1;whiteSpace=wrap;" vertex="1" parent="1">
            <mxGeometry x="851" y="591" width="100" height="70" as="geometry" />
          </mxCell>
        </UserObject>
        <UserObject label="&lt;div style=&quot;font-size: 1px&quot;&gt;&lt;p style=&quot;text-align:center;margin-left:0;margin-right:0;margin-top:0px;margin-bottom:0px;text-indent:0;vertical-align:middle;direction:ltr;&quot;&gt;&lt;font style=&quot;font-size:12px;font-family:0;color:#000000;direction:ltr;letter-spacing:0px;line-height:120%;opacity:1&quot;&gt;执行变更&lt;/font&gt;&lt;/p&gt;&lt;/div&gt;" tags="Background" id="UURBc7K2mCdlaTNC5-gX-17">
          <mxCell style="verticalAlign=middle;align=center;overflow=width;vsdxID=17;fillColor=#FFFFFF;gradientColor=none;shape=stencil(nZBRDoQgDERP03+WHsHFe5iISyOCQdT19kIaIxq//Jtp3zTpAFaTaUYNUkwx+F6v1EYD+AUpyRkdKCYFqACrzgf9C352LfuxyWRWg1/yhT/nRE5IsZWuZtCSK8CPeI0e/hF+jV7AJM4PO7KWCyr390bSiNtEtQM=);strokeColor=#000000;spacingTop=-3;spacingBottom=-3;spacingLeft=-3;spacingRight=-3;points=[];labelBackgroundColor=none;rounded=0;html=1;whiteSpace=wrap;" vertex="1" parent="1">
            <mxGeometry x="683" y="591" width="100" height="70" as="geometry" />
          </mxCell>
        </UserObject>
        <UserObject label="&lt;div style=&quot;font-size: 1px&quot;&gt;&lt;p style=&quot;text-align:center;margin-left:0;margin-right:0;margin-top:0px;margin-bottom:0px;text-indent:0;vertical-align:middle;direction:ltr;&quot;&gt;&lt;font style=&quot;font-size:12px;font-family:0;color:#000000;direction:ltr;letter-spacing:0px;line-height:120%;opacity:1&quot;&gt;向CCB提出变更请求&lt;/font&gt;&lt;/p&gt;&lt;/div&gt;" tags="Background" id="UURBc7K2mCdlaTNC5-gX-18">
          <mxCell style="verticalAlign=middle;align=center;overflow=width;vsdxID=18;fillColor=#FFFFFF;gradientColor=none;shape=stencil(nZBRDoQgDERP03+WHsHFe5iISyOCQdT19kIaIxq//Jtp3zTpAFaTaUYNUkwx+F6v1EYD+AUpyRkdKCYFqACrzgf9C352LfuxyWRWg1/yhT/nRE5IsZWuZtCSK8CPeI0e/hF+jV7AJM4PO7KWCyr390bSiNtEtQM=);strokeColor=#000000;spacingTop=-3;spacingBottom=-3;spacingLeft=-3;spacingRight=-3;points=[];labelBackgroundColor=none;rounded=0;html=1;whiteSpace=wrap;" vertex="1" parent="1">
            <mxGeometry x="1046" y="380" width="100" height="70" as="geometry" />
          </mxCell>
        </UserObject>
        <UserObject label="&lt;div style=&quot;font-size: 1px&quot;&gt;&lt;p style=&quot;text-align:center;margin-left:0;margin-right:0;margin-top:0px;margin-bottom:0px;text-indent:0;vertical-align:middle;direction:ltr;&quot;&gt;&lt;font style=&quot;font-size:12px;font-family:0;color:#000000;direction:ltr;letter-spacing:0px;line-height:120%;opacity:1&quot;&gt;Y&lt;/font&gt;&lt;/p&gt;&lt;/div&gt;" tags="Background" id="UURBc7K2mCdlaTNC5-gX-19">
          <mxCell style="verticalAlign=middle;align=center;overflow=width;vsdxID=19;fillColor=none;gradientColor=none;shape=stencil(nZBLDoAgDAVP0z3SIyjeg0SURgWD+Lu9EGL8xBW7N828Ji1gOWs5KeBs9s72aqPGa8AKOCejlSMfEqAALFvrVOfsYprEk4xmTKNd44Y99VhscHY8qU7iQOYhFixbvfhXzlZfYgj3hQG+54dReh2KEw==);strokeColor=none;strokeWidth=0;spacingTop=-3;spacingBottom=-3;spacingLeft=-3;spacingRight=-3;points=[];labelBackgroundColor=none;rounded=0;html=1;whiteSpace=wrap;" vertex="1" parent="1">
            <mxGeometry x="1003" y="383" width="28" height="35" as="geometry" />
          </mxCell>
        </UserObject>
        <UserObject label="&lt;div style=&quot;font-size: 1px&quot;&gt;&lt;p style=&quot;text-align:center;margin-left:0;margin-right:0;margin-top:0px;margin-bottom:0px;text-indent:0;vertical-align:middle;direction:ltr;&quot;&gt;&lt;font style=&quot;font-size:12px;font-family:0;color:#000000;direction:ltr;letter-spacing:0px;line-height:120%;opacity:1&quot;&gt;CCB进行审核&lt;/font&gt;&lt;/p&gt;&lt;/div&gt;" tags="Background" id="UURBc7K2mCdlaTNC5-gX-20">
          <mxCell style="verticalAlign=middle;align=center;overflow=width;vsdxID=20;fillColor=#FFFFFF;gradientColor=none;shape=stencil(nZBdDoMgEIRPs+/IxhNYew8TUTYiGKT+3F7IppE2jTF9m9n9Zh4GsJp1MymQYg7eDWqlNmjAB0hJVitPISrAGrDqnFe9dy/bsp+aRCY1uiU1bJwTKSHFzq5k+2TSkM3I8hO9IAvxd+s7+pO933pFRnGO0ZExvGX+/x4vnnh4rA8=);strokeColor=#000000;spacingTop=-3;spacingBottom=-3;spacingLeft=-3;spacingRight=-3;points=[];labelBackgroundColor=none;rounded=0;html=1;whiteSpace=wrap;" vertex="1" parent="1">
            <mxGeometry x="1219" y="380" width="90" height="70" as="geometry" />
          </mxCell>
        </UserObject>
        <UserObject label="&lt;div style=&quot;font-size: 1px&quot;&gt;&lt;p style=&quot;text-align:center;margin-left:0;margin-right:0;margin-top:0px;margin-bottom:0px;text-indent:0;vertical-align:middle;direction:ltr;&quot;&gt;&lt;font style=&quot;font-size:12px;font-family:0;color:#000000;direction:ltr;letter-spacing:0px;line-height:120%;opacity:1&quot;&gt;N&lt;/font&gt;&lt;/p&gt;&lt;/div&gt;" tags="Background" id="UURBc7K2mCdlaTNC5-gX-21">
          <mxCell style="verticalAlign=middle;align=center;overflow=width;vsdxID=21;fillColor=none;gradientColor=none;shape=stencil(nZBLDoAgDAVP0z3SIyjeg0SURgWD+Lu9EGL8xBW7N828Ji1gOWs5KeBs9s72aqPGa8AKOCejlSMfEqAALFvrVOfsYprEk4xmTKNd44Y99VhscHY8qU7iQOYhFixbvfhXzlZfYgj3hQG+54dReh2KEw==);strokeColor=none;strokeWidth=0;spacingTop=-3;spacingBottom=-3;spacingLeft=-3;spacingRight=-3;points=[];labelBackgroundColor=none;rounded=0;html=1;whiteSpace=wrap;" vertex="1" parent="1">
            <mxGeometry x="1159" y="315" width="50" height="36" as="geometry" />
          </mxCell>
        </UserObject>
        <UserObject label="&lt;div style=&quot;font-size: 1px&quot;&gt;&lt;p style=&quot;text-align:center;margin-left:0;margin-right:0;margin-top:0px;margin-bottom:0px;text-indent:0;vertical-align:middle;direction:ltr;&quot;&gt;&lt;font style=&quot;font-size:12px;font-family:0;color:#000000;direction:ltr;letter-spacing:0px;line-height:120%;opacity:1&quot;&gt;N&lt;/font&gt;&lt;/p&gt;&lt;/div&gt;" tags="Background" id="UURBc7K2mCdlaTNC5-gX-22">
          <mxCell style="verticalAlign=middle;align=center;overflow=width;vsdxID=22;fillColor=none;gradientColor=none;shape=stencil(nZBLDoAgDAVP0z3SIyjeg0SURgWD+Lu9EGL8xBW7N828Ji1gOWs5KeBs9s72aqPGa8AKOCejlSMfEqAALFvrVOfsYprEk4xmTKNd44Y99VhscHY8qU7iQOYhFixbvfhXzlZfYgj3hQG+54dReh2KEw==);strokeColor=none;strokeWidth=0;spacingTop=-3;spacingBottom=-3;spacingLeft=-3;spacingRight=-3;points=[];labelBackgroundColor=none;rounded=0;html=1;whiteSpace=wrap;" vertex="1" parent="1">
            <mxGeometry x="1313" y="380" width="50" height="36" as="geometry" />
          </mxCell>
        </UserObject>
        <UserObject label="&lt;div style=&quot;font-size: 1px&quot;&gt;&lt;p style=&quot;text-align:center;margin-left:0;margin-right:0;margin-top:0px;margin-bottom:0px;text-indent:0;vertical-align:middle;direction:ltr;&quot;&gt;&lt;font style=&quot;font-size:12px;font-family:0;color:#000000;direction:ltr;letter-spacing:0px;line-height:120%;opacity:1&quot;&gt;按照沟通管理计划通知相关关系人&lt;/font&gt;&lt;/p&gt;&lt;/div&gt;" tags="Background" id="UURBc7K2mCdlaTNC5-gX-23">
          <mxCell style="verticalAlign=middle;align=center;overflow=width;vsdxID=23;fillColor=#FFFFFF;gradientColor=none;shape=stencil(nZBRDoQgDERP03+WHsHFe5iISyOCQdT19kIaIxq//Jtp3zTpAFaTaUYNUkwx+F6v1EYD+AUpyRkdKCYFqACrzgf9C352LfuxyWRWg1/yhT/nRE5IsZWuZtCSK8CPeI0e/hF+jV7AJM4PO7KWCyr390bSiNtEtQM=);strokeColor=#000000;spacingTop=-3;spacingBottom=-3;spacingLeft=-3;spacingRight=-3;points=[];labelBackgroundColor=none;rounded=0;html=1;whiteSpace=wrap;" vertex="1" parent="1">
            <mxGeometry x="1214" y="484" width="100" height="70" as="geometry" />
          </mxCell>
        </UserObject>
        <UserObject label="&lt;div style=&quot;font-size: 1px&quot;&gt;&lt;p style=&quot;text-align:center;margin-left:0;margin-right:0;margin-top:0px;margin-bottom:0px;text-indent:0;vertical-align:middle;direction:ltr;&quot;&gt;&lt;font style=&quot;font-size:12px;font-family:0;color:#000000;direction:ltr;letter-spacing:0px;line-height:120%;opacity:1&quot;&gt;Y&lt;/font&gt;&lt;/p&gt;&lt;/div&gt;" tags="Background" id="UURBc7K2mCdlaTNC5-gX-24">
          <mxCell style="verticalAlign=middle;align=center;overflow=width;vsdxID=24;fillColor=none;gradientColor=none;shape=stencil(nZBLDoAgDAVP0z3SIyjeg0SURgWD+Lu9EGL8xBW7N828Ji1gOWs5KeBs9s72aqPGa8AKOCejlSMfEqAALFvrVOfsYprEk4xmTKNd44Y99VhscHY8qU7iQOYhFixbvfhXzlZfYgj3hQG+54dReh2KEw==);strokeColor=none;strokeWidth=0;spacingTop=-3;spacingBottom=-3;spacingLeft=-3;spacingRight=-3;points=[];labelBackgroundColor=none;rounded=0;html=1;whiteSpace=wrap;" vertex="1" parent="1">
            <mxGeometry x="1236" y="447" width="28" height="35" as="geometry" />
          </mxCell>
        </UserObject>
        <UserObject label="&lt;div style=&quot;font-size: 1px&quot;&gt;&lt;p style=&quot;text-align:center;margin-left:0;margin-right:0;margin-top:0px;margin-bottom:0px;text-indent:0;vertical-align:middle;direction:ltr;&quot;&gt;&lt;font style=&quot;font-size:12px;font-family:0;color:#000000;direction:ltr;letter-spacing:0px;line-height:120%;opacity:1&quot;&gt;更新&lt;/font&gt;&lt;/p&gt;&lt;/div&gt;" tags="Background" id="UURBc7K2mCdlaTNC5-gX-25">
          <mxCell style="verticalAlign=middle;align=center;overflow=width;vsdxID=25;fillColor=#FFFFFF;gradientColor=none;shape=stencil(nZBRDoQgDERP03+WHsHFe5iISyOCQdT19kIaIxq//Jtp3zTpAFaTaUYNUkwx+F6v1EYD+AUpyRkdKCYFqACrzgf9C352LfuxyWRWg1/yhT/nRE5IsZWuZtCSK8CPeI0e/hF+jV7AJM4PO7KWCyr390bSiNtEtQM=);strokeColor=#000000;spacingTop=-3;spacingBottom=-3;spacingLeft=-3;spacingRight=-3;points=[];labelBackgroundColor=none;rounded=0;html=1;whiteSpace=wrap;" vertex="1" parent="1">
            <mxGeometry x="1214" y="591" width="100" height="70" as="geometry" />
          </mxCell>
        </UserObject>
        <UserObject label="&lt;div style=&quot;font-size: 1px&quot;&gt;&lt;p style=&quot;text-align:center;margin-left:0;margin-right:0;margin-top:0px;margin-bottom:0px;text-indent:0;vertical-align:middle;direction:ltr;&quot;&gt;&lt;font style=&quot;font-size:12px;font-family:0;color:#000000;direction:ltr;letter-spacing:0px;line-height:120%;opacity:1&quot;&gt;CCB进行核验&lt;/font&gt;&lt;/p&gt;&lt;/div&gt;" tags="Background" id="UURBc7K2mCdlaTNC5-gX-26">
          <mxCell style="verticalAlign=middle;align=center;overflow=width;vsdxID=26;fillColor=#FFFFFF;gradientColor=none;shape=stencil(nZBdDoMgEIRPs+/IxhNYew8TUTYiGKT+3F7IppE2jTF9m9n9Zh4GsJp1MymQYg7eDWqlNmjAB0hJVitPISrAGrDqnFe9dy/bsp+aRCY1uiU1bJwTKSHFzq5k+2TSkM3I8hO9IAvxd+s7+pO933pFRnGO0ZExvGX+/x4vnnh4rA8=);strokeColor=#000000;spacingTop=-3;spacingBottom=-3;spacingLeft=-3;spacingRight=-3;points=[];labelBackgroundColor=none;rounded=0;html=1;whiteSpace=wrap;" vertex="1" parent="1">
            <mxGeometry x="1031" y="591" width="90" height="70" as="geometry" />
          </mxCell>
        </UserObject>
        <UserObject label="&lt;div style=&quot;font-size: 1px&quot;&gt;&lt;p style=&quot;text-align:center;margin-left:0;margin-right:0;margin-top:0px;margin-bottom:0px;text-indent:0;vertical-align:middle;direction:ltr;&quot;&gt;&lt;font style=&quot;font-size:12px;font-family:0;color:#000000;direction:ltr;letter-spacing:0px;line-height:120%;opacity:1&quot;&gt;Y&lt;/font&gt;&lt;/p&gt;&lt;/div&gt;" tags="Background" id="UURBc7K2mCdlaTNC5-gX-27">
          <mxCell style="verticalAlign=middle;align=center;overflow=width;vsdxID=27;fillColor=none;gradientColor=none;shape=stencil(nZBLDoAgDAVP0z3SIyjeg0SURgWD+Lu9EGL8xBW7N828Ji1gOWs5KeBs9s72aqPGa8AKOCejlSMfEqAALFvrVOfsYprEk4xmTKNd44Y99VhscHY8qU7iQOYhFixbvfhXzlZfYgj3hQG+54dReh2KEw==);strokeColor=none;strokeWidth=0;spacingTop=-3;spacingBottom=-3;spacingLeft=-3;spacingRight=-3;points=[];labelBackgroundColor=none;rounded=0;html=1;whiteSpace=wrap;" vertex="1" parent="1">
            <mxGeometry x="987" y="591" width="28" height="35" as="geometry" />
          </mxCell>
        </UserObject>
        <UserObject label="&lt;div style=&quot;font-size: 1px&quot;&gt;&lt;p style=&quot;text-align:center;margin-left:0;margin-right:0;margin-top:0px;margin-bottom:0px;text-indent:0;vertical-align:middle;direction:ltr;&quot;&gt;&lt;font style=&quot;font-size:12px;font-family:0;color:#000000;direction:ltr;letter-spacing:0px;line-height:120%;opacity:1&quot;&gt;N&lt;/font&gt;&lt;/p&gt;&lt;/div&gt;" tags="Background" id="UURBc7K2mCdlaTNC5-gX-28">
          <mxCell style="verticalAlign=middle;align=center;overflow=width;vsdxID=28;fillColor=none;gradientColor=none;shape=stencil(nZBLDoAgDAVP0z3SIyjeg0SURgWD+Lu9EGL8xBW7N828Ji1gOWs5KeBs9s72aqPGa8AKOCejlSMfEqAALFvrVOfsYprEk4xmTKNd44Y99VhscHY8qU7iQOYhFixbvfhXzlZfYgj3hQG+54dReh2KEw==);strokeColor=none;strokeWidth=0;spacingTop=-3;spacingBottom=-3;spacingLeft=-3;spacingRight=-3;points=[];labelBackgroundColor=none;rounded=0;html=1;whiteSpace=wrap;" vertex="1" parent="1">
            <mxGeometry x="1151" y="590" width="50" height="36" as="geometry" />
          </mxCell>
        </UserObject>
        <UserObject label="" tags="Background" id="UURBc7K2mCdlaTNC5-gX-29">
          <mxCell style="vsdxID=29;edgeStyle=none;startArrow=none;endArrow=block;startSize=5;endSize=5;strokeWidth=2;spacingTop=0;spacingBottom=0;spacingLeft=0;spacingRight=0;verticalAlign=middle;html=1;labelBackgroundColor=#ffffff;rounded=0;exitX=0;exitY=0.5;exitDx=0;exitDy=0;exitPerimeter=0;entryX=1;entryY=0.5;entryDx=0;entryDy=0;entryPerimeter=0;" edge="1" parent="1" source="UURBc7K2mCdlaTNC5-gX-10" target="UURBc7K2mCdlaTNC5-gX-11">
            <mxGeometry relative="1" as="geometry">
              <mxPoint x="17" y="102" as="offset" />
              <Array as="points">
                <mxPoint x="129.5" y="562" />
                <mxPoint x="129.5" y="562" />
              </Array>
            </mxGeometry>
          </mxCell>
        </UserObject>
        <UserObject label="" tags="Background" id="UURBc7K2mCdlaTNC5-gX-30">
          <mxCell style="vsdxID=30;edgeStyle=none;startArrow=none;endArrow=block;startSize=5;endSize=5;strokeWidth=2;spacingTop=0;spacingBottom=0;spacingLeft=0;spacingRight=0;verticalAlign=middle;html=1;labelBackgroundColor=#ffffff;rounded=0;exitX=1;exitY=0.5;exitDx=0;exitDy=0;exitPerimeter=0;entryX=0;entryY=0.5;entryDx=0;entryDy=0;entryPerimeter=0;" edge="1" parent="1" source="UURBc7K2mCdlaTNC5-gX-2" target="UURBc7K2mCdlaTNC5-gX-3">
            <mxGeometry relative="1" as="geometry">
              <mxPoint x="-29" y="102" as="offset" />
              <Array as="points">
                <mxPoint x="605" y="162" />
                <mxPoint x="605" y="162" />
              </Array>
            </mxGeometry>
          </mxCell>
        </UserObject>
        <UserObject label="" tags="Background" id="UURBc7K2mCdlaTNC5-gX-31">
          <mxCell style="vsdxID=31;edgeStyle=none;startArrow=none;endArrow=block;startSize=5;endSize=5;strokeWidth=2;spacingTop=0;spacingBottom=0;spacingLeft=0;spacingRight=0;verticalAlign=middle;html=1;labelBackgroundColor=#ffffff;rounded=0;exitX=0.5;exitY=1;exitDx=0;exitDy=0;exitPerimeter=0;entryX=0.5;entryY=0;entryDx=0;entryDy=0;entryPerimeter=0;" edge="1" parent="1" source="UURBc7K2mCdlaTNC5-gX-23" target="UURBc7K2mCdlaTNC5-gX-25">
            <mxGeometry relative="1" as="geometry">
              <mxPoint y="119" as="offset" />
              <Array as="points">
                <mxPoint x="1264" y="572.5" />
                <mxPoint x="1264" y="572.5" />
              </Array>
            </mxGeometry>
          </mxCell>
        </UserObject>
        <UserObject label="" tags="Background" id="UURBc7K2mCdlaTNC5-gX-32">
          <mxCell style="vsdxID=32;edgeStyle=none;startArrow=none;endArrow=block;startSize=5;endSize=5;strokeWidth=2;spacingTop=0;spacingBottom=0;spacingLeft=0;spacingRight=0;verticalAlign=middle;html=1;labelBackgroundColor=#ffffff;rounded=0;exitX=1;exitY=0.5;exitDx=0;exitDy=0;exitPerimeter=0;entryX=0.5;entryY=1;entryDx=0;entryDy=0;entryPerimeter=0;" edge="1" parent="1" source="UURBc7K2mCdlaTNC5-gX-20" target="UURBc7K2mCdlaTNC5-gX-8">
            <mxGeometry relative="1" as="geometry">
              <mxPoint x="285" y="-35" as="offset" />
              <Array as="points">
                <mxPoint x="1341.8" y="415" />
                <mxPoint x="1341.8" y="733.5" />
                <mxPoint x="489" y="733.5" />
              </Array>
            </mxGeometry>
          </mxCell>
        </UserObject>
        <UserObject label="" tags="Background" id="UURBc7K2mCdlaTNC5-gX-33">
          <mxCell style="vsdxID=33;edgeStyle=none;startArrow=none;endArrow=block;startSize=5;endSize=5;strokeWidth=2;spacingTop=0;spacingBottom=0;spacingLeft=0;spacingRight=0;verticalAlign=middle;html=1;labelBackgroundColor=#ffffff;rounded=0;exitX=0.5;exitY=1;exitDx=0;exitDy=0;exitPerimeter=0;entryX=0.5;entryY=0;entryDx=0;entryDy=0;entryPerimeter=0;" edge="1" parent="1" source="UURBc7K2mCdlaTNC5-gX-6" target="UURBc7K2mCdlaTNC5-gX-8">
            <mxGeometry relative="1" as="geometry">
              <mxPoint y="139" as="offset" />
              <Array as="points">
                <mxPoint x="489" y="488.5" />
                <mxPoint x="489" y="488.5" />
              </Array>
            </mxGeometry>
          </mxCell>
        </UserObject>
        <UserObject label="" tags="Background" id="UURBc7K2mCdlaTNC5-gX-34">
          <mxCell style="vsdxID=34;edgeStyle=none;startArrow=none;endArrow=block;startSize=5;endSize=5;strokeWidth=2;spacingTop=0;spacingBottom=0;spacingLeft=0;spacingRight=0;verticalAlign=middle;html=1;labelBackgroundColor=#ffffff;rounded=0;exitX=1;exitY=0.5;exitDx=0;exitDy=0;exitPerimeter=0;entryX=0;entryY=0.5;entryDx=0;entryDy=0;entryPerimeter=0;" edge="1" parent="1" source="UURBc7K2mCdlaTNC5-gX-5" target="UURBc7K2mCdlaTNC5-gX-12">
            <mxGeometry relative="1" as="geometry">
              <mxPoint x="-16" y="102" as="offset" />
              <Array as="points">
                <mxPoint x="783.5" y="415" />
                <mxPoint x="783.5" y="415" />
              </Array>
            </mxGeometry>
          </mxCell>
        </UserObject>
        <UserObject label="" tags="Background" id="UURBc7K2mCdlaTNC5-gX-35">
          <mxCell style="vsdxID=35;edgeStyle=none;startArrow=none;endArrow=block;startSize=5;endSize=5;strokeWidth=2;spacingTop=0;spacingBottom=0;spacingLeft=0;spacingRight=0;verticalAlign=middle;html=1;labelBackgroundColor=#ffffff;rounded=0;exitX=0.5;exitY=1;exitDx=0;exitDy=0;exitPerimeter=0;entryX=0.5;entryY=0;entryDx=0;entryDy=0;entryPerimeter=0;" edge="1" parent="1" source="UURBc7K2mCdlaTNC5-gX-14" target="UURBc7K2mCdlaTNC5-gX-16">
            <mxGeometry relative="1" as="geometry">
              <mxPoint y="119" as="offset" />
              <Array as="points">
                <mxPoint x="901" y="572.5" />
                <mxPoint x="901" y="572.5" />
              </Array>
            </mxGeometry>
          </mxCell>
        </UserObject>
        <UserObject label="" tags="Background" id="UURBc7K2mCdlaTNC5-gX-36">
          <mxCell style="vsdxID=36;edgeStyle=none;startArrow=none;endArrow=block;startSize=5;endSize=5;strokeWidth=2;spacingTop=0;spacingBottom=0;spacingLeft=0;spacingRight=0;verticalAlign=middle;html=1;labelBackgroundColor=#ffffff;rounded=0;exitX=0;exitY=0.5;exitDx=0;exitDy=0;exitPerimeter=0;entryX=1;entryY=0.5;entryDx=0;entryDy=0;entryPerimeter=0;" edge="1" parent="1" source="UURBc7K2mCdlaTNC5-gX-16" target="UURBc7K2mCdlaTNC5-gX-17">
            <mxGeometry relative="1" as="geometry">
              <mxPoint x="34" y="102" as="offset" />
              <Array as="points">
                <mxPoint x="817" y="626" />
                <mxPoint x="817" y="626" />
              </Array>
            </mxGeometry>
          </mxCell>
        </UserObject>
        <UserObject label="" tags="Background" id="UURBc7K2mCdlaTNC5-gX-37">
          <mxCell style="vsdxID=37;edgeStyle=none;startArrow=none;endArrow=block;startSize=5;endSize=5;strokeWidth=2;spacingTop=0;spacingBottom=0;spacingLeft=0;spacingRight=0;verticalAlign=middle;html=1;labelBackgroundColor=#ffffff;rounded=0;exitX=0;exitY=0.5;exitDx=0;exitDy=0;exitPerimeter=0;entryX=1;entryY=0.5;entryDx=0;entryDy=0;entryPerimeter=0;" edge="1" parent="1" source="UURBc7K2mCdlaTNC5-gX-5" target="UURBc7K2mCdlaTNC5-gX-6">
            <mxGeometry relative="1" as="geometry">
              <mxPoint x="31" y="102" as="offset" />
              <Array as="points">
                <mxPoint x="569.5" y="415" />
                <mxPoint x="569.5" y="415" />
              </Array>
            </mxGeometry>
          </mxCell>
        </UserObject>
        <UserObject label="" tags="Background" id="UURBc7K2mCdlaTNC5-gX-38">
          <mxCell style="vsdxID=38;edgeStyle=none;startArrow=none;endArrow=block;startSize=5;endSize=5;strokeWidth=2;spacingTop=0;spacingBottom=0;spacingLeft=0;spacingRight=0;verticalAlign=middle;html=1;labelBackgroundColor=#ffffff;rounded=0;exitX=0;exitY=0.5;exitDx=0;exitDy=0;exitPerimeter=0;entryX=1;entryY=0.5;entryDx=0;entryDy=0;entryPerimeter=0;" edge="1" parent="1" source="UURBc7K2mCdlaTNC5-gX-8" target="UURBc7K2mCdlaTNC5-gX-9">
            <mxGeometry relative="1" as="geometry">
              <mxPoint x="28" y="102" as="offset" />
              <Array as="points">
                <mxPoint x="411.5" y="562" />
                <mxPoint x="411.5" y="562" />
              </Array>
            </mxGeometry>
          </mxCell>
        </UserObject>
        <UserObject label="" tags="Background" id="UURBc7K2mCdlaTNC5-gX-39">
          <mxCell style="vsdxID=39;edgeStyle=none;startArrow=none;endArrow=block;startSize=5;endSize=5;strokeWidth=2;spacingTop=0;spacingBottom=0;spacingLeft=0;spacingRight=0;verticalAlign=middle;html=1;labelBackgroundColor=#ffffff;rounded=0;exitX=0.5;exitY=1;exitDx=0;exitDy=0;exitPerimeter=0;entryX=0.5;entryY=0;entryDx=0;entryDy=0;entryPerimeter=0;" edge="1" parent="1" source="UURBc7K2mCdlaTNC5-gX-1" target="UURBc7K2mCdlaTNC5-gX-2">
            <mxGeometry relative="1" as="geometry">
              <mxPoint y="129" as="offset" />
              <Array as="points">
                <mxPoint x="526" y="98.5" />
                <mxPoint x="526" y="98.5" />
              </Array>
            </mxGeometry>
          </mxCell>
        </UserObject>
        <UserObject label="" tags="Background" id="UURBc7K2mCdlaTNC5-gX-40">
          <mxCell style="vsdxID=40;edgeStyle=none;startArrow=none;endArrow=block;startSize=5;endSize=5;strokeWidth=2;spacingTop=0;spacingBottom=0;spacingLeft=0;spacingRight=0;verticalAlign=middle;html=1;labelBackgroundColor=#ffffff;rounded=0;exitX=0;exitY=0.5;exitDx=0;exitDy=0;exitPerimeter=0;entryX=1;entryY=0.5;entryDx=0;entryDy=0;entryPerimeter=0;" edge="1" parent="1" source="UURBc7K2mCdlaTNC5-gX-9" target="UURBc7K2mCdlaTNC5-gX-10">
            <mxGeometry relative="1" as="geometry">
              <mxPoint x="19" y="102" as="offset" />
              <Array as="points">
                <mxPoint x="265" y="562" />
                <mxPoint x="265" y="562" />
              </Array>
            </mxGeometry>
          </mxCell>
        </UserObject>
        <UserObject label="" tags="Background" id="UURBc7K2mCdlaTNC5-gX-41">
          <mxCell style="vsdxID=41;edgeStyle=none;startArrow=none;endArrow=block;startSize=5;endSize=5;strokeWidth=2;spacingTop=0;spacingBottom=0;spacingLeft=0;spacingRight=0;verticalAlign=middle;html=1;labelBackgroundColor=#ffffff;rounded=0;exitX=0.5;exitY=1;exitDx=0;exitDy=0;exitPerimeter=0;entryX=0.5;entryY=0;entryDx=0;entryDy=0;entryPerimeter=0;" edge="1" parent="1" source="UURBc7K2mCdlaTNC5-gX-12" target="UURBc7K2mCdlaTNC5-gX-14">
            <mxGeometry relative="1" as="geometry">
              <mxPoint y="119" as="offset" />
              <Array as="points">
                <mxPoint x="901" y="465.5" />
                <mxPoint x="901" y="465.5" />
              </Array>
            </mxGeometry>
          </mxCell>
        </UserObject>
        <UserObject label="" tags="Background" id="UURBc7K2mCdlaTNC5-gX-42">
          <mxCell style="vsdxID=42;edgeStyle=none;startArrow=none;endArrow=block;startSize=5;endSize=5;strokeWidth=2;spacingTop=0;spacingBottom=0;spacingLeft=0;spacingRight=0;verticalAlign=middle;html=1;labelBackgroundColor=#ffffff;rounded=0;exitX=0.5;exitY=0;exitDx=0;exitDy=0;exitPerimeter=0;entryX=0.5;entryY=0;entryDx=0;entryDy=0;entryPerimeter=0;" edge="1" parent="1" source="UURBc7K2mCdlaTNC5-gX-20" target="UURBc7K2mCdlaTNC5-gX-18">
            <mxGeometry relative="1" as="geometry">
              <mxPoint x="84" y="132" as="offset" />
              <Array as="points">
                <mxPoint x="1264" y="350" />
                <mxPoint x="1096" y="350" />
              </Array>
            </mxGeometry>
          </mxCell>
        </UserObject>
        <UserObject label="" tags="Background" id="UURBc7K2mCdlaTNC5-gX-43">
          <mxCell style="vsdxID=43;edgeStyle=none;startArrow=none;endArrow=block;startSize=5;endSize=5;strokeWidth=2;spacingTop=0;spacingBottom=0;spacingLeft=0;spacingRight=0;verticalAlign=middle;html=1;labelBackgroundColor=#ffffff;rounded=0;exitX=0.5;exitY=1;exitDx=0;exitDy=0;exitPerimeter=0;entryX=0.5;entryY=1;entryDx=0;entryDy=0;entryPerimeter=0;" edge="1" parent="1" source="UURBc7K2mCdlaTNC5-gX-26" target="UURBc7K2mCdlaTNC5-gX-25">
            <mxGeometry relative="1" as="geometry">
              <mxPoint x="-94" y="72" as="offset" />
              <Array as="points">
                <mxPoint x="1076" y="691" />
                <mxPoint x="1264" y="691" />
              </Array>
            </mxGeometry>
          </mxCell>
        </UserObject>
        <UserObject label="" tags="Background" id="UURBc7K2mCdlaTNC5-gX-44">
          <mxCell style="vsdxID=44;edgeStyle=none;startArrow=none;endArrow=block;startSize=5;endSize=5;strokeWidth=2;spacingTop=0;spacingBottom=0;spacingLeft=0;spacingRight=0;verticalAlign=middle;html=1;labelBackgroundColor=#ffffff;rounded=0;exitX=0;exitY=0.5;exitDx=0;exitDy=0;exitPerimeter=0;entryX=1;entryY=0.5;entryDx=0;entryDy=0;entryPerimeter=0;" edge="1" parent="1" source="UURBc7K2mCdlaTNC5-gX-25" target="UURBc7K2mCdlaTNC5-gX-26">
            <mxGeometry relative="1" as="geometry">
              <mxPoint x="47" y="102" as="offset" />
              <Array as="points">
                <mxPoint x="1167.5" y="626" />
                <mxPoint x="1167.5" y="626" />
              </Array>
            </mxGeometry>
          </mxCell>
        </UserObject>
        <UserObject label="" tags="Background" id="UURBc7K2mCdlaTNC5-gX-45">
          <mxCell style="vsdxID=45;edgeStyle=none;startArrow=none;endArrow=block;startSize=5;endSize=5;strokeWidth=2;spacingTop=0;spacingBottom=0;spacingLeft=0;spacingRight=0;verticalAlign=middle;html=1;labelBackgroundColor=#ffffff;rounded=0;exitX=0;exitY=0.5;exitDx=0;exitDy=0;exitPerimeter=0;entryX=1;entryY=0.5;entryDx=0;entryDy=0;entryPerimeter=0;" edge="1" parent="1" source="UURBc7K2mCdlaTNC5-gX-26" target="UURBc7K2mCdlaTNC5-gX-16">
            <mxGeometry relative="1" as="geometry">
              <mxPoint x="40" y="102" as="offset" />
              <Array as="points">
                <mxPoint x="991" y="626" />
                <mxPoint x="991" y="626" />
              </Array>
            </mxGeometry>
          </mxCell>
        </UserObject>
        <UserObject label="" tags="Background" id="UURBc7K2mCdlaTNC5-gX-46">
          <mxCell style="vsdxID=46;edgeStyle=none;startArrow=none;endArrow=block;startSize=5;endSize=5;strokeWidth=2;spacingTop=0;spacingBottom=0;spacingLeft=0;spacingRight=0;verticalAlign=middle;html=1;labelBackgroundColor=#ffffff;rounded=0;exitX=1;exitY=0.5;exitDx=0;exitDy=0;exitPerimeter=0;entryX=0;entryY=0.5;entryDx=0;entryDy=0;entryPerimeter=0;" edge="1" parent="1" source="UURBc7K2mCdlaTNC5-gX-12" target="UURBc7K2mCdlaTNC5-gX-18">
            <mxGeometry relative="1" as="geometry">
              <mxPoint x="-22" y="102" as="offset" />
              <Array as="points">
                <mxPoint x="1024.5" y="415" />
                <mxPoint x="1024.5" y="415" />
              </Array>
            </mxGeometry>
          </mxCell>
        </UserObject>
        <UserObject label="" tags="Background" id="UURBc7K2mCdlaTNC5-gX-47">
          <mxCell style="vsdxID=47;edgeStyle=none;startArrow=none;endArrow=block;startSize=5;endSize=5;strokeWidth=2;spacingTop=0;spacingBottom=0;spacingLeft=0;spacingRight=0;verticalAlign=middle;html=1;labelBackgroundColor=#ffffff;rounded=0;exitX=0;exitY=0.5;exitDx=0;exitDy=0;exitPerimeter=0;entryX=1;entryY=0.5;entryDx=0;entryDy=0;entryPerimeter=0;" edge="1" parent="1" source="UURBc7K2mCdlaTNC5-gX-17" target="UURBc7K2mCdlaTNC5-gX-8">
            <mxGeometry relative="1" as="geometry">
              <mxPoint x="72" y="69" as="offset" />
              <Array as="points">
                <mxPoint x="611" y="626" />
                <mxPoint x="611" y="562" />
              </Array>
            </mxGeometry>
          </mxCell>
        </UserObject>
        <UserObject label="" tags="Background" id="UURBc7K2mCdlaTNC5-gX-48">
          <mxCell style="vsdxID=48;edgeStyle=none;startArrow=none;endArrow=block;startSize=5;endSize=5;strokeWidth=2;spacingTop=0;spacingBottom=0;spacingLeft=0;spacingRight=0;verticalAlign=middle;html=1;labelBackgroundColor=#ffffff;rounded=0;exitX=0.5;exitY=1;exitDx=0;exitDy=0;exitPerimeter=0;entryX=0.5;entryY=0;entryDx=0;entryDy=0;entryPerimeter=0;" edge="1" parent="1" source="UURBc7K2mCdlaTNC5-gX-3" target="UURBc7K2mCdlaTNC5-gX-4">
            <mxGeometry relative="1" as="geometry">
              <mxPoint y="124" as="offset" />
              <Array as="points">
                <mxPoint x="684" y="220.5" />
                <mxPoint x="684" y="220.5" />
              </Array>
            </mxGeometry>
          </mxCell>
        </UserObject>
        <UserObject label="" tags="Background" id="UURBc7K2mCdlaTNC5-gX-49">
          <mxCell style="vsdxID=49;edgeStyle=none;startArrow=none;endArrow=block;startSize=5;endSize=5;strokeWidth=2;spacingTop=0;spacingBottom=0;spacingLeft=0;spacingRight=0;verticalAlign=middle;html=1;labelBackgroundColor=#ffffff;rounded=0;exitX=0.5;exitY=1;exitDx=0;exitDy=0;exitPerimeter=0;entryX=0.5;entryY=0;entryDx=0;entryDy=0;entryPerimeter=0;" edge="1" parent="1" source="UURBc7K2mCdlaTNC5-gX-20" target="UURBc7K2mCdlaTNC5-gX-23">
            <mxGeometry relative="1" as="geometry">
              <mxPoint y="118" as="offset" />
              <Array as="points">
                <mxPoint x="1264" y="467" />
                <mxPoint x="1264" y="467" />
              </Array>
            </mxGeometry>
          </mxCell>
        </UserObject>
        <UserObject label="" tags="Background" id="UURBc7K2mCdlaTNC5-gX-50">
          <mxCell style="vsdxID=50;edgeStyle=none;startArrow=none;endArrow=block;startSize=5;endSize=5;strokeWidth=2;spacingTop=0;spacingBottom=0;spacingLeft=0;spacingRight=0;verticalAlign=middle;html=1;labelBackgroundColor=#ffffff;rounded=0;exitX=1;exitY=0.5;exitDx=0;exitDy=0;exitPerimeter=0;entryX=0;entryY=0.5;entryDx=0;entryDy=0;entryPerimeter=0;" edge="1" parent="1" source="UURBc7K2mCdlaTNC5-gX-18" target="UURBc7K2mCdlaTNC5-gX-20">
            <mxGeometry relative="1" as="geometry">
              <mxPoint x="-37" y="102" as="offset" />
              <Array as="points">
                <mxPoint x="1182.5" y="415" />
                <mxPoint x="1182.5" y="415" />
              </Array>
            </mxGeometry>
          </mxCell>
        </UserObject>
        <UserObject label="" tags="Background" id="UURBc7K2mCdlaTNC5-gX-51">
          <mxCell style="vsdxID=51;edgeStyle=none;startArrow=none;endArrow=block;startSize=5;endSize=5;strokeWidth=2;spacingTop=0;spacingBottom=0;spacingLeft=0;spacingRight=0;verticalAlign=middle;html=1;labelBackgroundColor=#ffffff;rounded=0;exitX=0.5;exitY=1;exitDx=0;exitDy=0;exitPerimeter=0;entryX=0.5;entryY=0;entryDx=0;entryDy=0;entryPerimeter=0;" edge="1" parent="1" source="UURBc7K2mCdlaTNC5-gX-4" target="UURBc7K2mCdlaTNC5-gX-5">
            <mxGeometry relative="1" as="geometry">
              <mxPoint y="127" as="offset" />
              <Array as="points">
                <mxPoint x="684" y="350.5" />
                <mxPoint x="684" y="350.5" />
              </Array>
            </mxGeometry>
          </mxCell>
        </UserObject>
      </root>
    </mxGraphModel>
  </diagram>
</mxfile>
